<?xml version="1.0" encoding="UTF-8"?>
<svg id="_圖層_10" data-name="圖層 10" xmlns="http://www.w3.org/2000/svg" viewBox="0 0 512 512">
  <defs>
    <style>
      .cls-1 {
        fill: #583231;
      }

      .cls-2 {
        fill: #6aba45;
      }

      .cls-3 {
        fill: #f4f9f2;
      }

      .cls-4 {
        fill: #975331;
      }

      .cls-5 {
        fill: #b8693a;
      }

      .cls-6 {
        fill: #107e49;
      }

      .cls-7 {
        fill: #7e4033;
      }

      .cls-8 {
        fill: #81cde9;
      }

      .cls-9 {
        fill: #309745;
      }
    </style>
  </defs>
  <g id="ISLAND">
    <g>
      <rect class="cls-5" x="287.68" y="319.79" width="32" height="32"/>
      <rect class="cls-5" x="191.68" y="319.79" width="32" height="32"/>
      <rect class="cls-5" x="159.68" y="287.79" width="32" height="32"/>
    </g>
    <g>
      <rect class="cls-1" x="319.68" y="255.79" width="32" height="32"/>
      <rect class="cls-1" x="255.68" y="255.79" width="32" height="32"/>
      <rect class="cls-1" x="159.68" y="255.79" width="32" height="32"/>
    </g>
    <g>
      <polygon class="cls-4" points="351.68 319.79 319.68 319.79 319.68 351.79 351.68 351.79 383.68 351.79 383.68 319.79 351.68 319.79"/>
      <rect class="cls-4" x="287.68" y="287.79" width="32" height="32"/>
      <polygon class="cls-4" points="255.68 287.79 223.68 287.79 223.68 319.79 223.68 351.79 255.68 351.79 287.68 351.79 287.68 319.79 255.68 319.79 255.68 287.79"/>
      <polygon class="cls-4" points="127.68 319.79 127.68 351.79 159.68 351.79 191.68 351.79 191.68 319.79 159.68 319.79 127.68 319.79"/>
    </g>
    <g>
      <polygon class="cls-7" points="351.68 287.79 319.68 287.79 319.68 319.79 351.68 319.79 383.68 319.79 383.68 287.79 351.68 287.79"/>
      <polygon class="cls-7" points="319.68 351.79 287.68 351.79 255.68 351.79 223.68 351.79 191.68 351.79 159.68 351.79 127.68 351.79 127.68 383.79 159.68 383.79 191.68 383.79 223.68 383.79 255.68 383.79 287.68 383.79 319.68 383.79 351.68 383.79 383.68 383.79 383.68 351.79 351.68 351.79 319.68 351.79"/>
      <rect class="cls-7" x="255.68" y="287.79" width="32" height="32"/>
      <rect class="cls-7" x="191.68" y="287.79" width="32" height="32"/>
      <rect class="cls-7" x="127.68" y="287.79" width="32" height="32"/>
    </g>
    <g>
      <rect class="cls-6" x="351.68" y="255.79" width="32" height="32"/>
      <rect class="cls-6" x="287.68" y="255.79" width="32" height="32"/>
      <polygon class="cls-6" points="191.68 255.79 191.68 287.79 223.68 287.79 255.68 287.79 255.68 255.79 223.68 255.79 191.68 255.79"/>
      <rect class="cls-6" x="127.68" y="255.79" width="32" height="32"/>
    </g>
    <g>
      <polygon class="cls-9" points="351.68 223.79 319.68 223.79 319.68 255.79 351.68 255.79 383.68 255.79 383.68 223.79 351.68 223.79"/>
      <polygon class="cls-9" points="223.68 223.79 191.68 223.79 191.68 255.79 223.68 255.79 255.68 255.79 287.68 255.79 287.68 223.79 255.68 223.79 223.68 223.79"/>
      <rect class="cls-9" x="127.68" y="223.79" width="32" height="32"/>
    </g>
    <polygon class="cls-2" points="351.68 191.79 319.68 191.79 287.68 191.79 255.68 191.79 223.68 191.79 191.68 191.79 159.68 191.79 127.68 191.79 127.68 223.79 159.68 223.79 159.68 255.79 191.68 255.79 191.68 223.79 223.68 223.79 255.68 223.79 287.68 223.79 287.68 255.79 319.68 255.79 319.68 223.79 351.68 223.79 383.68 223.79 383.68 191.79 351.68 191.79"/>
    <g>
      <polygon class="cls-3" points="479.68 479.79 447.68 479.79 447.68 511.79 479.68 511.79 511.68 511.79 511.68 479.79 511.68 447.79 479.68 447.79 479.68 479.79"/>
      <polygon class="cls-3" points="479.68 31.79 479.68 -.21 447.68 -.21 415.68 -.21 383.68 -.21 383.68 31.79 351.68 31.79 319.68 31.79 287.68 31.79 287.68 63.79 255.68 63.79 255.68 95.79 287.68 95.79 319.68 95.79 351.68 95.79 351.68 127.79 383.68 127.79 415.68 127.79 447.68 127.79 479.68 127.79 479.68 95.79 511.68 95.79 511.68 63.79 511.68 31.79 479.68 31.79"/>
      <polygon class="cls-3" points="447.68 223.79 447.68 255.79 415.68 255.79 383.68 255.79 383.68 287.79 415.68 287.79 415.68 319.79 447.68 319.79 479.68 319.79 511.68 319.79 511.68 287.79 511.68 255.79 511.68 223.79 479.68 223.79 447.68 223.79"/>
      <polygon class="cls-3" points="127.68 447.79 95.68 447.79 63.68 447.79 63.68 415.79 31.68 415.79 -.32 415.79 -.32 447.79 -.32 479.79 -.32 511.79 31.68 511.79 63.68 511.79 95.68 511.79 127.68 511.79 159.68 511.79 159.68 479.79 127.68 479.79 127.68 447.79"/>
      <polygon class="cls-3" points="63.68 191.79 95.68 191.79 95.68 159.79 127.68 159.79 127.68 127.79 95.68 127.79 95.68 95.79 63.68 95.79 63.68 63.79 31.68 63.79 -.32 63.79 -.32 95.79 -.32 127.79 -.32 159.79 -.32 191.79 31.68 191.79 63.68 191.79"/>
    </g>
    <g>
      <polygon class="cls-8" points="479.68 127.79 447.68 127.79 415.68 127.79 383.68 127.79 351.68 127.79 351.68 95.79 319.68 95.79 287.68 95.79 255.68 95.79 255.68 63.79 287.68 63.79 287.68 31.79 319.68 31.79 351.68 31.79 383.68 31.79 383.68 -.21 351.68 -.21 319.68 -.21 287.68 -.21 255.68 -.21 223.68 -.21 191.68 -.21 159.68 -.21 127.68 -.21 95.68 -.21 63.68 -.21 31.68 -.21 -.32 -.21 -.32 31.79 -.32 63.79 31.68 63.79 63.68 63.79 63.68 95.79 95.68 95.79 95.68 127.79 127.68 127.79 127.68 159.79 95.68 159.79 95.68 191.79 63.68 191.79 31.68 191.79 -.32 191.79 -.32 223.79 -.32 255.79 -.32 287.79 -.32 319.79 -.32 351.79 -.32 383.79 -.32 415.79 31.68 415.79 63.68 415.79 63.68 447.79 95.68 447.79 127.68 447.79 127.68 479.79 159.68 479.79 159.68 511.79 191.68 511.79 223.68 511.79 255.68 511.79 287.68 511.79 319.68 511.79 351.68 511.79 383.68 511.79 415.68 511.79 447.68 511.79 447.68 479.79 479.68 479.79 479.68 447.79 511.68 447.79 511.68 415.79 511.68 383.79 511.68 351.79 511.68 319.79 479.68 319.79 447.68 319.79 415.68 319.79 415.68 287.79 383.68 287.79 383.68 319.79 383.68 351.79 383.68 383.79 351.68 383.79 319.68 383.79 287.68 383.79 255.68 383.79 223.68 383.79 191.68 383.79 159.68 383.79 127.68 383.79 127.68 351.79 127.68 319.79 127.68 287.79 127.68 255.79 127.68 223.79 127.68 191.79 159.68 191.79 191.68 191.79 223.68 191.79 255.68 191.79 287.68 191.79 319.68 191.79 351.68 191.79 383.68 191.79 383.68 223.79 383.68 255.79 415.68 255.79 447.68 255.79 447.68 223.79 479.68 223.79 511.68 223.79 511.68 191.79 511.68 159.79 511.68 127.79 511.68 95.79 479.68 95.79 479.68 127.79"/>
      <rect class="cls-8" x="479.68" y="-.21" width="32" height="32"/>
    </g>
  </g>
</svg>