<?xml version="1.0" encoding="UTF-8"?>
<svg id="_圖層_10" data-name="圖層 10" xmlns="http://www.w3.org/2000/svg" viewBox="0 0 512 512">
  <defs>
    <style>
      .cls-1 {
        fill: #b7acce;
      }

      .cls-2 {
        fill: #cabddc;
      }

      .cls-3 {
        fill: #9f90c4;
      }

      .cls-4 {
        fill: #f0edf6;
      }
    </style>
  </defs>
  <g>
    <polygon class="cls-3" points="448 32 416 32 384 32 352 32 352 64 352 96 352 128 352 160 384 160 416 160 448 160 480 160 480 128 480 96 480 64 480 32 448 32"/>
    <polygon class="cls-3" points="256 352 224 352 192 352 192 384 192 416 192 448 192 480 224 480 256 480 288 480 320 480 320 448 320 416 320 384 320 352 288 352 256 352"/>
  </g>
  <g>
    <polygon class="cls-2" points="448 192 416 192 384 192 352 192 352 224 352 256 352 288 352 320 384 320 416 320 448 320 480 320 480 288 480 256 480 224 480 192 448 192"/>
    <polygon class="cls-2" points="416 352 384 352 352 352 352 384 352 416 352 448 352 480 384 480 416 480 448 480 480 480 480 448 480 416 480 384 480 352 448 352 416 352"/>
    <polygon class="cls-2" points="256 32 224 32 192 32 192 64 192 96 192 128 192 160 224 160 256 160 288 160 320 160 320 128 320 96 320 64 320 32 288 32 256 32"/>
    <polygon class="cls-2" points="96 352 64 352 32 352 32 384 32 416 32 448 32 480 64 480 96 480 128 480 160 480 160 448 160 416 160 384 160 352 128 352 96 352"/>
    <polygon class="cls-2" points="96 192 64 192 32 192 32 224 32 256 32 288 32 320 64 320 96 320 128 320 160 320 160 288 160 256 160 224 160 192 128 192 96 192"/>
  </g>
  <g>
    <polygon class="cls-1" points="288 192 256 192 224 192 192 192 192 224 192 256 192 288 192 320 224 320 256 320 288 320 320 320 320 288 320 256 320 224 320 192 288 192"/>
    <polygon class="cls-1" points="96 32 64 32 32 32 32 64 32 96 32 128 32 160 64 160 96 160 128 160 160 160 160 128 160 96 160 64 160 32 128 32 96 32"/>
  </g>
  <path class="cls-4" d="M480,0H0v512H512V0h-32ZM224,32h96v128h-128V32h32ZM320,224v96h-128v-128h128v32ZM32,128V32h128v128H32v-32ZM32,288v-96h128v128H32v-32ZM128,480H32v-128h128v128h-32ZM288,480h-96v-128h128v128h-32ZM480,384v96h-128v-128h128v32ZM480,224v96h-128v-128h128v32ZM480,64v96h-128V32h128v32Z"/>
</svg>