<?xml version="1.0" encoding="UTF-8"?>
<svg id="_圖層_10" data-name="圖層 10" xmlns="http://www.w3.org/2000/svg" viewBox="0 0 512 509.5">
  <defs>
    <style>
      .cls-1 {
        fill: #f4f9f2;
      }

      .cls-2 {
        fill: #bfdae3;
      }

      .cls-3 {
        fill: #81cde9;
      }
    </style>
  </defs>
  <path class="cls-3" d="M361.41,119.22H120.47v271.06h271.06V119.22h-30.12ZM331.3,209.58v120.47h-30.12v-30.12h-30.12v-30.12h-30.12v-30.12h-30.11v90.36h-30.12v-150.59h30.12v30.12h30.11v30.11h30.12v30.12h30.12v-90.35h30.12v30.12Z"/>
  <g>
    <polygon class="cls-1" points="391.53 119.22 391.53 149.34 391.53 179.46 391.53 209.58 391.53 239.69 391.53 269.81 391.53 299.93 391.53 330.05 391.53 360.16 391.53 390.28 421.65 390.28 421.65 360.16 421.65 330.05 421.65 299.93 421.65 269.81 421.65 239.69 421.65 209.58 421.65 179.46 421.65 149.34 421.65 119.22 391.53 119.22"/>
    <polygon class="cls-1" points="331.3 390.28 301.18 390.28 271.06 390.28 240.94 390.28 210.83 390.28 180.71 390.28 150.59 390.28 120.47 390.28 120.47 420.4 150.59 420.4 180.71 420.4 210.83 420.4 240.94 420.4 271.06 420.4 301.18 420.4 331.3 420.4 361.41 420.4 391.53 420.4 391.53 390.28 361.41 390.28 331.3 390.28"/>
    <polygon class="cls-1" points="301.18 209.58 301.18 239.69 301.18 269.81 271.06 269.81 271.06 299.93 301.18 299.93 301.18 330.05 331.3 330.05 331.3 299.93 331.3 269.81 331.3 239.69 331.3 209.58 331.3 179.46 301.18 179.46 301.18 209.58"/>
    <rect class="cls-1" x="240.94" y="239.69" width="30.12" height="30.12"/>
    <polygon class="cls-1" points="210.83 209.58 210.83 179.46 180.71 179.46 180.71 209.58 180.71 239.69 180.71 269.81 180.71 299.93 180.71 330.05 210.83 330.05 210.83 299.93 210.83 269.81 210.83 239.69 240.94 239.69 240.94 209.58 210.83 209.58"/>
    <polygon class="cls-1" points="180.71 119.22 210.83 119.22 240.94 119.22 271.06 119.22 301.18 119.22 331.3 119.22 361.41 119.22 391.53 119.22 391.53 89.1 361.41 89.1 331.3 89.1 301.18 89.1 271.06 89.1 240.94 89.1 210.83 89.1 180.71 89.1 150.59 89.1 120.47 89.1 120.47 119.22 150.59 119.22 180.71 119.22"/>
    <polygon class="cls-1" points="120.47 330.05 120.47 299.93 120.47 269.81 120.47 239.69 120.47 209.58 120.47 179.46 120.47 149.34 120.47 119.22 90.36 119.22 90.36 149.34 90.36 179.46 90.36 209.58 90.36 239.69 90.36 269.81 90.36 299.93 90.36 330.05 90.36 360.16 90.36 390.28 120.47 390.28 120.47 360.16 120.47 330.05"/>
  </g>
  <path class="cls-2" d="M481.89-1.25H0V510.75H512V-1.25h-30.11ZM421.65,149.34v240.94h-30.12v30.12H120.47v-30.12h-30.11V119.22h30.11v-30.12h271.06v30.12h30.12v30.12Z"/>
</svg>