<svg id="npc-favicon" xmlns="http://www.w3.org/2000/svg" viewBox="0 0 512 512">
  <defs><style>.cls-4{fill:#4d4d4d}</style></defs>
  <path d="M277.33 21.32H256v21.32h42.66V21.32zM256 468.99h21.33v21.32H256z" style="fill:#5c9346"/>
  <path style="fill:#eba544" d="M213.33 468.99h21.33v21.32h-21.33z"/>
  <path style="fill:#d85850" d="M170.66 468.99h21.33v21.32h-21.33z"/>
  <path style="fill:#333" d="M256 341.09h-85.34v21.32h106.67v-21.32z"/>
  <path style="fill:#e7e9de" d="M170.66 127.91h-42.67v21.32h64v-21.32z"/>
  <path d="M362.66 170.54v-21.31h-21.33v-21.32H191.99v21.32h-85.33v21.31H85.33v21.32H64v127.91h21.33v21.31h21.33v21.32h64v-21.32h106.67v21.32h64v-21.32h21.33v-21.31h21.33V170.54zm-21.33 85.27h-64V234.5h64zM106.66 234.5h64v21.31h-64zm170.67 191.86H127.99v85.27h21.34v-63.95h149.33v63.95H320v-85.27z" style="fill:#cdcec1"/>
  <path d="M448 319.77h21.33v21.31H448zm0-127.91h21.33v21.31H448zm-21.33 21.32v106.59H448v-21.32h21.33V234.5H448v-21.32zm-21.34 191.86H384v63.95h21.33v21.32h21.34v-63.95h-21.34zM384 341.09h21.33V170.54H384v149.23h-21.34v21.32h-21.33v21.32H384zm-21.34-191.86h21.33v21.31h-21.33zm0-42.64H149.33v21.32h192v21.32h21.33zM320 447.68v63.95h21.33v-85.27H320zm-21.34-42.64H149.33v21.32H320v-21.32zm0-42.63h-192v21.31h234.67v-21.31zm-192-234.5h21.33v21.32h-21.33zM85.33 468.99v42.64h21.33v-63.95H85.33zm0-127.9h21.33v21.32H85.33zm0-191.86h21.33v21.31H85.33zM63.99 319.77h21.33v21.31H63.99zm0-149.23h21.33v21.32H63.99z" style="fill:#8f9792"/>
  <path d="M469.33 213.18H448v21.32h21.33v63.95H448v21.32h42.67V213.18zm-42.66 255.81v21.32h-21.34v21.32H448v-63.95h-21.33zm0-149.22h-21.34v21.32H384v21.32h-42.67v21.31h85.34v-21.31H448v-21.32h-21.33zM384 468.99h21.33v21.32H384zm0-298.45h21.33v42.64h21.34v-21.32H448v-21.32h-21.33v-21.31h-21.34v-21.32h-42.67v21.32H384zm0 277.14v-42.64h-21.34v63.95H384zm-21.34 21.31h-21.33v42.64H384v-21.32h-21.34zM320 405.04h21.33v21.31H320zm-192.01 0h21.33v21.31h-21.33zm-42.66-42.63h21.33v21.31H85.33zm-21.34 127.9h21.33v21.31H63.99zm0-149.22h21.33v21.32H63.99zm-42.66-85.28v63.96h21.33V234.5H21.33z" style="fill:#6b7473"/>
  <path class="cls-4" d="M490.67 213.18v106.59H512V213.18zm-21.34 106.59h21.33v21.31h-21.33zm0-127.91h21.33v21.31h-21.33zM448 490.31v21.32h21.33v-63.95H448zm0-149.22h21.33v21.32H448zm0-170.55h21.33v21.32H448zm-21.33 255.82H448v21.32h-21.33zm0-63.95H448v21.31h-21.33zm0-42.64H448v21.31h-21.33zm0-127.91H448v21.31h-21.33zm0-42.63H448v21.31h-21.33zm-21.34 85.27v85.27h21.34V213.18h-21.34zm0-106.59h21.33v21.32h-21.33zM384 490.31h21.33v21.31H384zm0-106.59H85.33v21.32h21.33v21.32H85.33v21.32h21.33v63.95h21.33V405.04h213.34v63.95h21.33v-63.95h42.67v21.32h21.34v-42.64zm-21.34 85.27h21.33v21.32h-21.33zM384 127.91h21.33v-21.32h-42.67v21.32zM298.66 234.5h-21.33v21.31h64V234.5zm0-213.18V0H256v21.32z"/>
  <path class="cls-4" d="M256 447.68H149.33v63.95h149.34v-63.95zm-64.01 42.63h-21.33v-21.32h21.33zm42.67 0h-21.33v-21.32h21.33zm42.67 0H256v-21.32h21.33zm-85.34-383.72h170.67V85.27h-64V63.96H320V21.32h-21.34v21.32H256V21.32h-21.34v42.64H256v21.31H149.33v21.32zm-64 127.91h-21.33v21.31h64V234.5zm21.34-106.59v-21.32h-42.67v21.32zm-64 0h21.33v21.32H85.33zM63.99 468.99v21.32h21.34v-42.63H63.99zm0-106.58h21.33v21.31H63.99zm0-213.18h21.33v21.31H63.99zM42.66 490.31h21.33v21.31H42.66zm21.33-170.54V170.54H42.66v42.64H21.33v21.32h21.33v85.27H21.33v21.32h21.33v21.32h21.33zm-42.66-42.63V234.5H0v85.27h21.33z"/>
</svg>
