<?xml version="1.0" encoding="UTF-8"?>
<svg id="_圖層_10" data-name="圖層 10" xmlns="http://www.w3.org/2000/svg" viewBox="0 0 512 512">
  <defs>
    <style>
      .cls-1 {
        fill: #78391e;
      }

      .cls-2 {
        fill: #edb05d;
      }

      .cls-3 {
        fill: #f4f9f2;
      }

      .cls-4 {
        fill: #6bb945;
      }

      .cls-5 {
        fill: #1aa4e0;
      }

      .cls-6 {
        fill: #51d5fc;
      }

      .cls-7 {
        fill: #df5739;
      }

      .cls-8 {
        fill: #fcf7f6;
      }

      .cls-9 {
        fill: #fdda9f;
      }

      .cls-10 {
        fill: #9b552c;
      }

      .cls-11 {
        fill: #81cde9;
      }
    </style>
  </defs>
  <g id="Shop">
    <polygon class="cls-6" points="361.42 331.29 331.3 331.29 301.17 331.29 271.06 331.29 240.95 331.29 240.95 361.41 271.06 361.41 301.17 361.41 331.3 361.41 361.42 361.41 391.53 361.41 391.53 331.29 361.42 331.29"/>
    <polygon class="cls-5" points="361.42 301.17 331.3 301.17 301.17 301.17 271.06 301.17 240.95 301.17 240.95 331.29 271.06 331.29 301.17 331.29 331.3 331.29 361.42 331.29 391.53 331.29 391.53 301.17 361.42 301.17"/>
    <polygon class="cls-1" points="180.71 301.17 150.59 301.17 120.48 301.17 120.48 331.29 120.48 361.41 120.48 391.53 120.48 421.64 150.59 421.64 150.59 391.53 150.59 361.41 150.59 331.29 180.71 331.29 180.71 361.41 180.71 391.53 180.71 421.64 210.82 421.64 210.82 391.53 210.82 361.41 210.82 331.29 210.82 301.17 180.71 301.17"/>
    <g>
      <rect class="cls-8" x="361.42" y="210.82" width="30.11" height="30.12"/>
      <rect class="cls-8" x="331.3" y="180.7" width="30.12" height="30.12"/>
      <rect class="cls-8" x="301.17" y="210.82" width="30.12" height="30.12"/>
      <rect class="cls-8" x="271.06" y="180.7" width="30.12" height="30.12"/>
      <rect class="cls-8" x="240.95" y="210.82" width="30.11" height="30.12"/>
      <rect class="cls-8" x="210.82" y="180.7" width="30.12" height="30.12"/>
      <rect class="cls-8" x="180.71" y="210.82" width="30.12" height="30.12"/>
      <rect class="cls-8" x="150.59" y="180.7" width="30.12" height="30.12"/>
      <rect class="cls-8" x="120.48" y="210.82" width="30.11" height="30.12"/>
    </g>
    <g>
      <polygon class="cls-10" points="391.53 391.53 361.42 391.53 331.3 391.53 301.17 391.53 271.06 391.53 240.95 391.53 210.82 391.53 210.82 421.64 240.95 421.64 271.06 421.64 301.17 421.64 331.3 421.64 361.42 421.64 391.53 421.64 421.65 421.64 421.65 391.53 391.53 391.53"/>
      <polygon class="cls-10" points="150.59 361.41 150.59 391.53 150.59 421.64 180.71 421.64 180.71 391.53 180.71 361.41 180.71 331.29 150.59 331.29 150.59 361.41"/>
      <rect class="cls-10" x="90.36" y="391.53" width="30.12" height="30.11"/>
    </g>
    <g>
      <polygon class="cls-9" points="391.53 301.17 391.53 331.29 391.53 361.41 361.42 361.41 331.3 361.41 301.17 361.41 271.06 361.41 240.95 361.41 240.95 331.29 240.95 301.17 210.82 301.17 210.82 331.29 210.82 361.41 210.82 391.53 240.95 391.53 271.06 391.53 301.17 391.53 331.3 391.53 361.42 391.53 391.53 391.53 421.65 391.53 421.65 361.41 421.65 331.29 421.65 301.17 391.53 301.17"/>
      <polygon class="cls-9" points="90.36 331.29 90.36 361.41 90.36 391.53 120.48 391.53 120.48 361.41 120.48 331.29 120.48 301.17 90.36 301.17 90.36 331.29"/>
    </g>
    <polygon class="cls-2" points="391.53 271.06 361.42 271.06 331.3 271.06 301.17 271.06 271.06 271.06 240.95 271.06 210.82 271.06 180.71 271.06 150.59 271.06 120.48 271.06 90.36 271.06 90.36 301.17 120.48 301.17 150.59 301.17 180.71 301.17 210.82 301.17 240.95 301.17 271.06 301.17 301.17 301.17 331.3 301.17 361.42 301.17 391.53 301.17 421.65 301.17 421.65 271.06 391.53 271.06"/>
    <g>
      <polygon class="cls-7" points="421.65 240.94 421.65 210.82 391.53 210.82 391.53 240.94 361.42 240.94 361.42 210.82 331.3 210.82 331.3 240.94 301.17 240.94 301.17 210.82 271.06 210.82 271.06 240.94 240.95 240.94 240.95 210.82 210.82 210.82 210.82 240.94 180.71 240.94 180.71 210.82 150.59 210.82 150.59 240.94 120.48 240.94 120.48 210.82 90.36 210.82 90.36 240.94 60.24 240.94 60.24 271.06 90.36 271.06 120.48 271.06 150.59 271.06 180.71 271.06 210.82 271.06 240.95 271.06 271.06 271.06 301.17 271.06 331.3 271.06 361.42 271.06 391.53 271.06 421.65 271.06 451.77 271.06 451.77 240.94 421.65 240.94"/>
      <rect class="cls-7" x="361.42" y="180.7" width="30.11" height="30.12"/>
      <polygon class="cls-7" points="180.71 210.82 210.82 210.82 210.82 180.7 240.95 180.7 240.95 210.82 271.06 210.82 271.06 180.7 301.17 180.7 301.17 210.82 331.3 210.82 331.3 180.7 361.42 180.7 361.42 150.58 331.3 150.58 301.17 150.58 271.06 150.58 240.95 150.58 210.82 150.58 180.71 150.58 150.59 150.58 150.59 180.7 180.71 180.7 180.71 210.82"/>
      <rect class="cls-7" x="120.48" y="180.7" width="30.11" height="30.12"/>
    </g>
    <polygon class="cls-4" points="481.88 361.41 451.77 361.41 421.65 361.41 421.65 391.53 421.65 421.64 391.53 421.64 361.42 421.64 331.3 421.64 301.17 421.64 271.06 421.64 240.95 421.64 210.82 421.64 180.71 421.64 150.59 421.64 120.48 421.64 90.36 421.64 90.36 391.53 90.36 361.41 60.24 361.41 30.11 361.41 0 361.41 0 391.53 0 421.64 0 451.76 0 481.88 0 512 30.11 512 60.24 512 90.36 512 120.48 512 150.59 512 180.71 512 210.82 512 240.95 512 271.06 512 301.17 512 331.3 512 361.42 512 391.53 512 421.65 512 451.77 512 481.88 512 512 512 512 481.88 512 451.76 512 421.64 512 391.53 512 361.41 481.88 361.41"/>
    <polygon class="cls-11" points="481.88 120.47 451.77 120.47 451.77 90.35 421.65 90.35 391.53 90.35 361.42 90.35 361.42 60.23 391.53 60.23 421.65 60.23 421.65 30.11 451.77 30.11 481.88 30.11 481.88 0 451.77 0 421.65 0 391.53 0 361.42 0 331.3 0 301.17 0 271.06 0 240.95 0 210.82 0 180.71 0 150.59 0 120.48 0 90.36 0 60.24 0 30.11 0 30.11 30.11 60.24 30.11 90.36 30.11 90.36 60.23 120.48 60.23 150.59 60.23 150.59 90.35 120.48 90.35 120.48 120.47 90.36 120.47 60.24 120.47 30.11 120.47 0 120.47 0 150.58 0 180.7 0 210.82 0 240.94 0 271.06 0 301.17 0 331.29 0 361.41 30.11 361.41 60.24 361.41 90.36 361.41 90.36 331.29 90.36 301.17 90.36 271.06 60.24 271.06 60.24 240.94 90.36 240.94 90.36 210.82 120.48 210.82 120.48 180.7 150.59 180.7 150.59 150.58 180.71 150.58 210.82 150.58 240.95 150.58 271.06 150.58 301.17 150.58 331.3 150.58 361.42 150.58 361.42 180.7 391.53 180.7 391.53 210.82 421.65 210.82 421.65 240.94 451.77 240.94 451.77 271.06 421.65 271.06 421.65 301.17 421.65 331.29 421.65 361.41 451.77 361.41 481.88 361.41 512 361.41 512 331.29 512 301.17 512 271.06 512 240.94 512 210.82 512 180.7 512 150.58 512 120.47 481.88 120.47"/>
    <g>
      <polygon class="cls-3" points="481.88 0 481.88 30.11 451.77 30.11 421.65 30.11 421.65 60.23 391.53 60.23 361.42 60.23 361.42 90.35 391.53 90.35 421.65 90.35 451.77 90.35 451.77 120.47 481.88 120.47 512 120.47 512 90.35 512 60.23 512 30.11 512 0 481.88 0"/>
      <polygon class="cls-3" points="90.36 60.23 90.36 30.11 60.24 30.11 30.11 30.11 30.11 0 0 0 0 30.11 0 60.23 0 90.35 0 120.47 30.11 120.47 60.24 120.47 90.36 120.47 120.48 120.47 120.48 90.35 150.59 90.35 150.59 60.23 120.48 60.23 90.36 60.23"/>
    </g>
  </g>
</svg>