<?xml version="1.0" encoding="UTF-8"?>
<svg id="_圖層_10" data-name="圖層 10" xmlns="http://www.w3.org/2000/svg" viewBox="0 0 512 512">
  <defs>
    <style>
      .cls-1 {
        fill: #fff;
      }

      .cls-2 {
        fill: #f2d5d0;
      }
    </style>
  </defs>
  <rect class="cls-1" x="0" y="0" width="512" height="512"/>
  <g>
    <path class="cls-2" d="M477.86,0H0V512h512V0h-34.14ZM34.13,204.8V68.27h34.13v-34.14h170.67v170.67h-34.13v34.13H34.13v-34.13ZM204.8,477.87H68.26v-34.14h-34.13v-170.66h170.67v34.13h34.13v170.67h-34.13ZM477.86,307.2v136.53h-34.13v34.14h-170.67v-170.67h34.14v-34.13h170.66v34.13ZM477.86,102.4v136.53h-170.66v-34.13h-34.14V34.13h170.67v34.14h34.13v34.13Z"/>
    <rect class="cls-2" x="409.6" y="409.6" width="34.13" height="34.13"/>
    <rect class="cls-2" x="409.6" y="68.27" width="34.13" height="34.13"/>
    <rect class="cls-2" x="375.46" y="375.47" width="34.14" height="34.13"/>
    <rect class="cls-2" x="375.46" y="102.4" width="34.14" height="34.13"/>
    <rect class="cls-2" x="341.33" y="341.33" width="34.13" height="34.14"/>
    <rect class="cls-2" x="341.33" y="136.53" width="34.13" height="34.14"/>
    <rect class="cls-2" x="307.2" y="307.2" width="34.13" height="34.13"/>
    <rect class="cls-2" x="307.2" y="170.67" width="34.13" height="34.13"/>
    <rect class="cls-2" x="170.66" y="307.2" width="34.14" height="34.13"/>
    <rect class="cls-2" x="170.66" y="170.67" width="34.14" height="34.13"/>
    <rect class="cls-2" x="136.53" y="341.33" width="34.13" height="34.14"/>
    <rect class="cls-2" x="136.53" y="136.53" width="34.13" height="34.14"/>
    <rect class="cls-2" x="102.4" y="375.47" width="34.13" height="34.13"/>
    <rect class="cls-2" x="102.4" y="102.4" width="34.13" height="34.13"/>
    <rect class="cls-2" x="68.26" y="409.6" width="34.14" height="34.13"/>
    <rect class="cls-2" x="68.26" y="68.27" width="34.14" height="34.13"/>
  </g>
</svg>