<?xml version="1.0" encoding="UTF-8"?>
<svg id="Bricks" xmlns="http://www.w3.org/2000/svg" viewBox="0 0 300 300">
  <defs>
    <style>
      .cls-1 {
        fill: #fdd14d;
      }

      .cls-2 {
        fill: #a16738;
      }

      .cls-3 {
        fill: #bf863b;
      }

      .cls-4 {
        fill: #edb33f;
      }

      .cls-5 {
        fill: #daa344;
      }

      .cls-6 {
        fill: #fff0a7;
      }
    </style>
  </defs>
  <g>
    <rect class="cls-5" x="250.01" y="208.8" width="16.68" height="16.8"/>
    <rect class="cls-5" x="250.01" y="141.6" width="16.68" height="16.8"/>
    <rect class="cls-5" x="216.66" y="208.8" width="16.68" height="16.8"/>
    <polygon class="cls-5" points="200 175.19 200 192 216.66 192 233.34 192 233.34 175.19 216.66 175.19 200 175.19"/>
    <rect class="cls-5" x="166.67" y="141.6" width="16.66" height="16.8"/>
    <polygon class="cls-5" points="150.01 192 150.01 208.8 166.67 208.8 183.34 208.8 183.34 192 166.67 192 150.01 192"/>
    <polygon class="cls-5" points="83.34 192 83.34 208.8 100 208.8 116.68 208.8 116.68 192 100 192 83.34 192"/>
    <rect class="cls-5" x="83.34" y="141.6" width="16.66" height="16.8"/>
    <polygon class="cls-5" points="83.34 158.4 66.66 158.4 50.01 158.4 50.01 175.19 66.66 175.19 83.34 175.19 83.34 158.4"/>
  </g>
  <path class="cls-3" d="M250.01,158.4H83.34v16.79h-33.33v-16.79h-16.66v50.4h16.66v16.8h33.33v-33.6h33.34v16.8h-16.68v16.8h50.01v-33.6h33.33v16.8h-16.66v16.8h33.33v-16.8h66.69v-50.4h-16.68ZM216.66,192h-16.66v-16.81h33.34v16.81h-16.68Z"/>
  <g>
    <polygon class="cls-2" points="266.68 124.79 266.68 107.99 250.01 107.99 250.01 124.79 233.34 124.79 233.34 141.6 216.66 141.6 216.66 124.79 200 124.79 200 107.99 183.34 107.99 183.34 124.79 166.67 124.79 150.01 124.79 150.01 141.6 133.33 141.6 116.68 141.6 100 141.6 100 158.4 116.68 158.4 133.33 158.4 150.01 158.4 166.67 158.4 166.67 141.6 183.34 141.6 183.34 158.4 200 158.4 216.66 158.4 233.34 158.4 250.01 158.4 250.01 141.6 266.68 141.6 266.68 158.4 266.68 175.19 266.68 192 266.68 208.8 266.68 225.6 283.34 225.6 283.34 208.8 283.34 192 283.34 175.19 283.34 158.4 283.34 141.6 283.34 124.79 266.68 124.79"/>
    <polygon class="cls-2" points="250.01 208.8 233.34 208.8 233.34 225.6 216.66 225.6 216.66 208.8 200 208.8 200 225.6 183.34 225.6 166.67 225.6 166.67 208.8 150.01 208.8 150.01 225.6 133.33 225.6 116.68 225.6 100 225.6 100 208.8 83.34 208.8 83.34 225.6 66.66 225.6 50.01 225.6 50.01 208.8 33.34 208.8 33.34 192 33.34 175.19 33.34 158.4 50.01 158.4 66.66 158.4 83.34 158.4 83.34 141.6 100 141.6 100 124.79 83.34 124.79 66.66 124.79 66.66 107.99 50.01 107.99 50.01 124.79 50.01 141.6 33.34 141.6 33.34 124.79 16.66 124.79 16.66 141.6 16.66 158.4 16.66 175.19 16.66 192 16.66 208.8 16.66 225.6 33.34 225.6 33.34 242.41 50.01 242.41 66.66 242.41 83.34 242.41 100 242.41 116.68 242.41 133.33 242.41 150.01 242.41 166.67 242.41 183.34 242.41 200 242.41 216.66 242.41 233.34 242.41 250.01 242.41 266.68 242.41 266.68 225.6 250.01 225.6 250.01 208.8"/>
  </g>
  <polygon class="cls-6" points="266.68 57.59 250.01 57.59 233.34 57.59 216.66 57.59 200 57.59 183.34 57.59 166.67 57.59 150.01 57.59 133.33 57.59 116.68 57.59 100 57.59 83.34 57.59 66.66 57.59 50.01 57.59 33.34 57.59 16.66 57.59 16.66 74.39 16.66 91.19 33.34 91.19 50.01 91.19 50.01 74.39 66.66 74.39 66.66 91.19 83.34 91.19 83.34 107.99 100 107.99 116.68 107.99 133.33 107.99 133.33 91.19 150.01 91.19 150.01 74.39 166.67 74.39 183.34 74.39 200 74.39 200 91.19 216.66 91.19 216.66 107.99 233.34 107.99 233.34 91.19 250.01 91.19 250.01 74.39 266.68 74.39 266.68 91.19 283.34 91.19 283.34 74.39 283.34 57.59 266.68 57.59"/>
  <polygon class="cls-1" points="283.34 91.19 266.68 91.19 266.68 74.39 250.01 74.39 250.01 91.19 233.34 91.19 233.34 107.99 216.66 107.99 216.66 91.19 200 91.19 200 74.39 183.34 74.39 166.67 74.39 150.01 74.39 150.01 91.19 133.33 91.19 133.33 107.99 116.68 107.99 100 107.99 83.34 107.99 83.34 91.19 66.66 91.19 66.66 74.39 50.01 74.39 50.01 91.19 33.34 91.19 16.66 91.19 0 91.19 0 107.99 0 124.79 16.66 124.79 33.34 124.79 33.34 141.6 50.01 141.6 50.01 124.79 50.01 107.99 66.66 107.99 66.66 124.79 83.34 124.79 100 124.79 100 141.6 116.68 141.6 133.33 141.6 150.01 141.6 150.01 124.79 166.67 124.79 183.34 124.79 183.34 107.99 200 107.99 200 124.79 216.66 124.79 216.66 141.6 233.34 141.6 233.34 124.79 250.01 124.79 250.01 107.99 266.68 107.99 266.68 124.79 283.34 124.79 300 124.79 300 107.99 300 91.19 283.34 91.19"/>
  <g>
    <rect class="cls-4" x="283.34" y="74.39" width="16.66" height="16.8"/>
    <rect class="cls-4" x="0" y="74.39" width="16.66" height="16.8"/>
  </g>
</svg>