<?xml version="1.0" encoding="UTF-8"?>
<svg id="Bricks" xmlns="http://www.w3.org/2000/svg" viewBox="0 0 500.02 300">
  <defs>
    <style>
      .cls-1 {
        fill: #c8913f;
      }

      .cls-2 {
        fill: #ae763b;
      }

      .cls-3 {
        fill: #fce89a;
      }

      .cls-4 {
        fill: #a06739;
      }

      .cls-5 {
        fill: #fbd04e;
      }
    </style>
  </defs>
  <g>
    <rect class="cls-1" x="433.35" y="208.81" width="16.68" height="16.79"/>
    <polygon class="cls-1" points="433.35 175.2 416.7 175.2 400.02 175.2 400.02 192.01 416.7 192.01 433.35 192.01 433.35 175.2"/>
    <polygon class="cls-1" points="350.01 141.6 350.01 158.4 366.68 158.4 383.36 158.4 383.36 141.6 366.68 141.6 350.01 141.6"/>
    <polygon class="cls-1" points="316.68 192.01 316.68 208.81 333.36 208.81 350.01 208.81 350.01 192.01 333.36 192.01 316.68 192.01"/>
    <polygon class="cls-1" points="266.69 175.2 266.69 192.01 283.34 192.01 300.02 192.01 300.02 175.2 283.34 175.2 266.69 175.2"/>
    <rect class="cls-1" x="250.02" y="141.6" width="16.66" height="16.8"/>
    <rect class="cls-1" x="216.68" y="208.81" width="16.66" height="16.79"/>
    <rect class="cls-1" x="166.69" y="141.6" width="16.66" height="16.8"/>
    <polygon class="cls-1" points="150.01 192.01 150.01 208.81 166.69 208.81 183.35 208.81 183.35 192.01 166.69 192.01 150.01 192.01"/>
    <polygon class="cls-1" points="83.34 192.01 83.34 208.81 100.02 208.81 116.68 208.81 116.68 192.01 100.02 192.01 83.34 192.01"/>
    <rect class="cls-1" x="83.34" y="141.6" width="16.68" height="16.8"/>
    <polygon class="cls-1" points="83.34 158.4 66.67 158.4 50.02 158.4 50.02 175.2 66.67 175.2 83.34 175.2 83.34 158.4"/>
  </g>
  <path class="cls-2" d="M450.03,158.4H83.34v16.8h-33.32v-16.8h-16.68v50.41h16.68v16.79h33.32v-33.59h33.34v16.8h-16.66v16.79h49.99v-33.59h33.34v16.8h-16.66v16.79h33.32v-16.79h33.34v16.79h49.99v-16.79h16.68v16.79h66.66v-16.79h16.68v16.79h33.34v-16.79h49.99v-50.41h-16.66ZM283.34,192.01h-16.65v-16.81h33.33v16.81h-16.68ZM333.36,208.81h-16.68v-16.8h33.33v16.8h-16.65ZM416.7,192.01h-16.68v-16.81h33.33v16.81h-16.65Z"/>
  <g>
    <polygon class="cls-4" points="466.69 124.8 450.03 124.8 450.03 141.6 433.35 141.6 433.35 124.8 416.7 124.8 416.7 141.6 400.02 141.6 400.02 124.8 383.36 124.8 366.68 124.8 350.01 124.8 333.36 124.8 333.36 141.6 316.68 141.6 300.02 141.6 283.34 141.6 283.34 124.8 266.69 124.8 266.69 108 250.02 108 250.02 124.8 233.35 124.8 233.35 141.6 216.68 141.6 216.68 124.8 200 124.8 200 108 183.35 108 183.35 124.8 166.69 124.8 150.01 124.8 150.01 141.6 133.34 141.6 116.68 141.6 100.02 141.6 100.02 158.4 116.68 158.4 133.34 158.4 150.01 158.4 166.69 158.4 166.69 141.6 183.35 141.6 183.35 158.4 200 158.4 216.68 158.4 233.35 158.4 250.02 158.4 250.02 141.6 266.69 141.6 266.69 158.4 283.34 158.4 300.02 158.4 316.68 158.4 333.36 158.4 350.01 158.4 350.01 141.6 366.68 141.6 383.36 141.6 383.36 158.4 400.02 158.4 416.7 158.4 433.35 158.4 450.03 158.4 466.69 158.4 466.69 175.2 466.69 192.01 466.69 208.81 483.36 208.81 483.36 192.01 483.36 175.2 483.36 158.4 483.36 141.6 483.36 124.8 466.69 124.8"/>
    <rect class="cls-4" x="450.03" y="208.81" width="16.66" height="16.79"/>
    <polygon class="cls-4" points="433.35 208.81 416.7 208.81 416.7 225.6 400.02 225.6 383.36 225.6 383.36 208.81 366.68 208.81 366.68 225.6 350.01 225.6 333.36 225.6 316.68 225.6 300.02 225.6 300.02 208.81 283.34 208.81 283.34 225.6 266.69 225.6 250.02 225.6 233.35 225.6 216.68 225.6 216.68 208.81 200 208.81 200 225.6 183.35 225.6 166.69 225.6 166.69 208.81 150.01 208.81 150.01 225.6 133.34 225.6 116.68 225.6 100.02 225.6 100.02 208.81 83.34 208.81 83.34 225.6 66.67 225.6 50.02 225.6 50.02 208.81 33.34 208.81 33.34 192.01 33.34 175.2 33.34 158.4 50.02 158.4 66.67 158.4 83.34 158.4 83.34 141.6 100.02 141.6 100.02 124.8 83.34 124.8 66.67 124.8 66.67 108 50.02 108 50.02 124.8 50.02 141.6 33.34 141.6 33.34 124.8 16.68 124.8 16.68 141.6 16.68 158.4 16.68 175.2 16.68 192.01 16.68 208.81 16.68 225.6 33.34 225.6 33.34 242.41 50.02 242.41 66.67 242.41 83.34 242.41 100.02 242.41 116.68 242.41 133.34 242.41 150.01 242.41 166.69 242.41 183.35 242.41 200 242.41 216.68 242.41 233.35 242.41 250.02 242.41 266.69 242.41 283.34 242.41 300.02 242.41 316.68 242.41 333.36 242.41 350.01 242.41 366.68 242.41 383.36 242.41 400.02 242.41 416.7 242.41 433.35 242.41 450.03 242.41 450.03 225.6 433.35 225.6 433.35 208.81"/>
  </g>
  <polygon class="cls-3" points="466.69 57.59 450.03 57.59 433.35 57.59 416.7 57.59 400.02 57.59 383.36 57.59 366.68 57.59 350.01 57.59 333.36 57.59 316.68 57.59 300.02 57.59 283.34 57.59 266.69 57.59 250.02 57.59 233.35 57.59 216.68 57.59 200 57.59 183.35 57.59 166.69 57.59 150.01 57.59 133.34 57.59 116.68 57.59 100.02 57.59 83.34 57.59 66.67 57.59 50.02 57.59 33.34 57.59 16.68 57.59 16.68 74.39 16.68 91.2 33.34 91.2 50.02 91.2 50.02 74.39 66.67 74.39 66.67 91.2 83.34 91.2 83.34 108 100.02 108 116.68 108 133.34 108 133.34 91.2 150.01 91.2 150.01 74.39 166.69 74.39 183.35 74.39 200 74.39 200 91.2 216.68 91.2 216.68 108 233.35 108 233.35 91.2 250.02 91.2 250.02 74.39 266.69 74.39 266.69 91.2 283.34 91.2 300.02 91.2 316.68 91.2 316.68 74.39 333.36 74.39 350.01 74.39 350.01 91.2 366.68 91.2 366.68 108 383.36 108 400.02 108 400.02 91.2 416.7 91.2 416.7 74.39 433.35 74.39 433.35 91.2 450.03 91.2 450.03 108 466.69 108 483.36 108 483.36 91.2 483.36 74.39 483.36 57.59 466.69 57.59"/>
  <polygon class="cls-5" points="483.36 74.39 483.36 91.2 483.36 108 466.69 108 450.03 108 450.03 91.2 433.35 91.2 433.35 74.39 416.7 74.39 416.7 91.2 400.02 91.2 400.02 108 383.36 108 366.68 108 366.68 91.2 350.01 91.2 350.01 74.39 333.36 74.39 316.68 74.39 316.68 91.2 300.02 91.2 283.34 91.2 266.69 91.2 266.69 74.39 250.02 74.39 250.02 91.2 233.35 91.2 233.35 108 216.68 108 216.68 91.2 200 91.2 200 74.39 183.35 74.39 166.69 74.39 150.01 74.39 150.01 91.2 133.34 91.2 133.34 108 116.68 108 100.02 108 83.34 108 83.34 91.2 66.67 91.2 66.67 74.39 50.02 74.39 50.02 91.2 33.34 91.2 16.68 91.2 16.68 74.39 0 74.39 0 91.2 0 108 0 124.8 16.68 124.8 33.34 124.8 33.34 141.6 50.02 141.6 50.02 124.8 50.02 108 66.67 108 66.67 124.8 83.34 124.8 100.02 124.8 100.02 141.6 116.68 141.6 133.34 141.6 150.01 141.6 150.01 124.8 166.69 124.8 183.35 124.8 183.35 108 200 108 200 124.8 216.68 124.8 216.68 141.6 233.35 141.6 233.35 124.8 250.02 124.8 250.02 108 266.69 108 266.69 124.8 283.34 124.8 283.34 141.6 300.02 141.6 316.68 141.6 333.36 141.6 333.36 124.8 350.01 124.8 366.68 124.8 383.36 124.8 400.02 124.8 400.02 141.6 416.7 141.6 416.7 124.8 433.35 124.8 433.35 141.6 450.03 141.6 450.03 124.8 466.69 124.8 483.36 124.8 500.02 124.8 500.02 108 500.02 91.2 500.02 74.39 483.36 74.39"/>
</svg>