<?xml version="1.0" encoding="UTF-8"?>
<svg id="Bricks" xmlns="http://www.w3.org/2000/svg" viewBox="0 0 499.27 300">
  <defs>
    <style>
      .cls-1 {
        fill: #367da9;
      }

      .cls-2 {
        fill: #85cf44;
      }

      .cls-3 {
        fill: #1e4b68;
      }

      .cls-4 {
        fill: #2d6892;
      }

      .cls-5 {
        fill: #afe14a;
      }
    </style>
  </defs>
  <g>
    <rect class="cls-1" x="432.97" y="208.81" width="16.68" height="16.79"/>
    <polygon class="cls-1" points="432.97 175.2 416.32 175.2 399.64 175.2 399.64 192.01 416.32 192.01 432.97 192.01 432.97 175.2"/>
    <polygon class="cls-1" points="349.63 141.6 349.63 158.4 366.3 158.4 382.98 158.4 382.98 141.6 366.3 141.6 349.63 141.6"/>
    <polygon class="cls-1" points="316.3 192.01 316.3 208.81 332.98 208.81 349.63 208.81 349.63 192.01 332.98 192.01 316.3 192.01"/>
    <polygon class="cls-1" points="266.31 175.2 266.31 192.01 282.96 192.01 299.64 192.01 299.64 175.2 282.96 175.2 266.31 175.2"/>
    <rect class="cls-1" x="249.65" y="141.6" width="16.66" height="16.8"/>
    <rect class="cls-1" x="216.3" y="208.81" width="16.66" height="16.79"/>
    <rect class="cls-1" x="166.31" y="141.6" width="16.66" height="16.8"/>
    <polygon class="cls-1" points="149.63 192.01 149.63 208.81 166.31 208.81 182.97 208.81 182.97 192.01 166.31 192.01 149.63 192.01"/>
    <polygon class="cls-1" points="82.96 192.01 82.96 208.81 99.64 208.81 116.3 208.81 116.3 192.01 99.64 192.01 82.96 192.01"/>
    <rect class="cls-1" x="82.96" y="141.6" width="16.68" height="16.8"/>
    <polygon class="cls-1" points="82.96 158.4 66.29 158.4 49.64 158.4 49.64 175.2 66.29 175.2 82.96 175.2 82.96 158.4"/>
  </g>
  <path class="cls-4" d="M449.65,158.4H82.96v16.8h-33.32v-16.8h-16.68v50.41h16.68v16.79h33.32v-33.59h33.34v16.8h-16.66v16.79h49.99v-33.59h33.34v16.8h-16.66v16.79h33.32v-16.79h33.34v16.79h49.99v-16.79h16.68v16.79h66.66v-16.79h16.68v16.79h33.34v-16.79h49.99v-50.41h-16.66ZM282.96,192.01h-16.65v-16.81h33.33v16.81h-16.68ZM332.98,208.81h-16.68v-16.8h33.33v16.8h-16.65ZM416.32,192.01h-16.68v-16.81h33.33v16.81h-16.65Z"/>
  <g>
    <rect class="cls-3" x="449.65" y="208.81" width="16.66" height="16.79"/>
    <g>
      <polygon class="cls-3" points="466.31 124.8 449.65 124.8 449.65 141.6 432.97 141.6 432.97 124.8 416.32 124.8 416.32 141.6 399.64 141.6 399.64 124.8 382.98 124.8 366.3 124.8 349.63 124.8 332.98 124.8 332.98 141.6 316.3 141.6 299.64 141.6 282.96 141.6 282.96 124.8 266.31 124.8 266.31 108 249.65 108 249.65 124.8 232.97 124.8 232.97 141.6 216.3 141.6 216.3 124.8 199.62 124.8 199.62 108 182.97 108 182.97 124.8 166.31 124.8 149.63 124.8 149.63 141.6 132.97 141.6 116.3 141.6 99.64 141.6 99.64 158.4 116.3 158.4 132.97 158.4 149.63 158.4 166.31 158.4 166.31 141.6 182.97 141.6 182.97 158.4 199.62 158.4 216.3 158.4 232.97 158.4 249.65 158.4 249.65 141.6 266.31 141.6 266.31 158.4 282.96 158.4 299.64 158.4 316.3 158.4 332.98 158.4 349.63 158.4 349.63 141.6 366.3 141.6 382.98 141.6 382.98 158.4 399.64 158.4 416.32 158.4 432.97 158.4 449.65 158.4 466.31 158.4 466.31 175.2 466.31 192.01 466.31 208.81 482.98 208.81 482.98 192.01 482.98 175.2 482.98 158.4 482.98 141.6 482.98 124.8 466.31 124.8"/>
      <polygon class="cls-3" points="82.96 124.8 66.29 124.8 66.29 108 49.64 108 49.64 124.8 49.64 141.6 32.96 141.6 32.96 124.8 16.3 124.8 16.3 141.6 16.3 158.4 16.3 175.2 16.3 192.01 16.3 208.81 16.3 225.6 32.96 225.6 32.96 242.41 49.64 242.41 66.29 242.41 82.96 242.41 99.64 242.41 116.3 242.41 132.97 242.41 149.63 242.41 166.31 242.41 182.97 242.41 199.62 242.41 216.3 242.41 232.97 242.41 249.65 242.41 266.31 242.41 282.96 242.41 299.64 242.41 316.3 242.41 332.98 242.41 349.63 242.41 366.3 242.41 382.98 242.41 399.64 242.41 416.32 242.41 432.97 242.41 449.65 242.41 449.65 225.6 432.97 225.6 432.97 208.81 416.32 208.81 416.32 225.6 399.64 225.6 382.98 225.6 382.98 208.81 366.3 208.81 366.3 225.6 349.63 225.6 332.98 225.6 316.3 225.6 299.64 225.6 299.64 208.81 282.96 208.81 282.96 225.6 266.31 225.6 249.65 225.6 232.97 225.6 216.3 225.6 216.3 208.81 199.62 208.81 199.62 225.6 182.97 225.6 166.31 225.6 166.31 208.81 149.63 208.81 149.63 225.6 132.97 225.6 116.3 225.6 99.64 225.6 99.64 208.81 82.96 208.81 82.96 225.6 66.29 225.6 49.64 225.6 49.64 208.81 32.96 208.81 32.96 192.01 32.96 175.2 32.96 158.4 49.64 158.4 66.29 158.4 82.96 158.4 82.96 141.6 99.64 141.6 99.64 124.8 82.96 124.8"/>
    </g>
  </g>
  <polygon class="cls-5" points="466.31 57.59 449.65 57.59 432.97 57.59 416.32 57.59 399.64 57.59 382.98 57.59 366.3 57.59 349.63 57.59 332.98 57.59 316.3 57.59 299.64 57.59 282.96 57.59 266.31 57.59 249.65 57.59 232.97 57.59 216.3 57.59 199.63 57.59 182.97 57.59 166.31 57.59 149.63 57.59 132.97 57.59 116.3 57.59 99.64 57.59 82.96 57.59 66.29 57.59 49.64 57.59 32.96 57.59 16.3 57.59 16.3 74.39 16.3 91.2 32.96 91.2 49.64 91.2 49.64 74.39 66.29 74.39 66.29 91.2 82.96 91.2 82.96 108 99.64 108 116.3 108 132.97 108 132.97 91.2 149.63 91.2 149.63 74.39 166.31 74.39 182.97 74.39 199.63 74.39 199.63 91.2 216.3 91.2 216.3 108 232.97 108 232.97 91.2 249.65 91.2 249.65 74.39 266.31 74.39 266.31 91.2 282.96 91.2 299.64 91.2 316.3 91.2 316.3 74.39 332.98 74.39 349.63 74.39 349.63 91.2 366.3 91.2 366.3 108 382.98 108 399.64 108 399.64 91.2 416.32 91.2 416.32 74.39 432.97 74.39 432.97 91.2 449.65 91.2 449.65 108 466.31 108 482.98 108 482.98 91.2 482.98 74.39 482.98 57.59 466.31 57.59"/>
  <polygon class="cls-2" points="482.98 74.39 482.98 91.2 482.98 108 466.31 108 449.65 108 449.65 91.2 432.97 91.2 432.97 74.39 416.32 74.39 416.32 91.2 399.64 91.2 399.64 108 382.98 108 366.3 108 366.3 91.2 349.63 91.2 349.63 74.39 332.98 74.39 316.3 74.39 316.3 91.2 299.64 91.2 282.96 91.2 266.31 91.2 266.31 74.39 249.65 74.39 249.65 91.2 232.97 91.2 232.97 108 216.3 108 216.3 91.2 199.63 91.2 199.63 74.39 182.97 74.39 166.31 74.39 149.63 74.39 149.63 91.2 132.97 91.2 132.97 108 116.3 108 99.64 108 82.96 108 82.96 91.2 66.29 91.2 66.29 74.39 49.64 74.39 49.64 91.2 32.96 91.2 16.3 91.2 16.3 74.39 -.38 74.39 -.38 91.2 -.38 108 -.38 124.8 16.3 124.8 32.96 124.8 32.96 141.6 49.64 141.6 49.64 124.8 49.64 108 66.29 108 66.29 124.8 82.96 124.8 99.64 124.8 99.64 141.6 116.3 141.6 132.97 141.6 149.63 141.6 149.63 124.8 166.31 124.8 182.97 124.8 182.97 108 199.63 108 199.63 124.8 216.3 124.8 216.3 141.6 232.97 141.6 232.97 124.8 249.65 124.8 249.65 108 266.31 108 266.31 124.8 282.96 124.8 282.96 141.6 299.64 141.6 316.3 141.6 332.98 141.6 332.98 124.8 349.63 124.8 366.3 124.8 382.98 124.8 399.64 124.8 399.64 141.6 416.32 141.6 416.32 124.8 432.97 124.8 432.97 141.6 449.65 141.6 449.65 124.8 466.31 124.8 482.98 124.8 499.64 124.8 499.64 108 499.64 91.2 499.64 74.39 482.98 74.39"/>
</svg>