<?xml version="1.0" encoding="UTF-8"?>
<svg id="Bricks" xmlns="http://www.w3.org/2000/svg" viewBox="0 0 864.77 300">
  <defs>
    <style>
      .cls-1 {
        fill: #367da9;
      }

      .cls-2 {
        fill: #85cf44;
      }

      .cls-3 {
        fill: #1e4b68;
      }

      .cls-4 {
        fill: #2d6892;
      }

      .cls-5 {
        fill: #afe14a;
      }
    </style>
  </defs>
  <path class="cls-4" d="M814.88,159.97H83.15v16.8h-33.26v-16.8h-16.63v50.41h16.63v16.8h33.26v-33.6h33.26v16.8h-16.63v16.8h49.89v-33.6h33.26v16.8h-16.63v16.8h33.26v-16.8h33.26v16.8h49.89v-16.8h16.63v16.8h66.52v-16.8h16.63v16.8h33.26v-16.8h66.52v16.8h66.52v-16.8h16.63v16.8h33.26v-16.8h66.52v16.8h66.52v-16.8h16.63v16.8h33.26v-16.8h49.89v-50.41h-16.63ZM282.71,193.58h-16.63v-16.8h33.26v16.8h-16.63ZM332.61,210.38h-16.63v-16.8h33.26v16.8h-16.63ZM415.76,193.58h-16.63v-16.8h33.26v16.8h-16.63ZM515.54,210.38h-16.63v-16.8h33.26v16.8h-16.63ZM598.69,193.58h-16.63v-16.8h33.26v16.8h-16.63ZM698.47,210.38h-16.63v-16.8h33.26v16.8h-16.63ZM781.62,193.58h-16.63v-16.8h33.26v16.8h-16.63Z"/>
  <g>
    <rect class="cls-1" x="798.25" y="210.38" width="16.63" height="16.8"/>
    <rect class="cls-1" x="615.32" y="210.38" width="16.63" height="16.8"/>
    <rect class="cls-1" x="432.39" y="210.38" width="16.63" height="16.8"/>
    <rect class="cls-1" x="216.19" y="210.38" width="16.63" height="16.8"/>
    <polygon class="cls-1" points="681.84 193.58 681.84 210.38 698.47 210.38 715.1 210.38 715.1 193.58 698.47 193.58 681.84 193.58"/>
    <polygon class="cls-1" points="498.91 193.58 498.91 210.38 515.54 210.38 532.17 210.38 532.17 193.58 515.54 193.58 498.91 193.58"/>
    <polygon class="cls-1" points="315.97 193.58 315.97 210.38 332.61 210.38 349.23 210.38 349.23 193.58 332.61 193.58 315.97 193.58"/>
    <polygon class="cls-1" points="149.67 193.58 149.67 210.38 166.3 210.38 182.93 210.38 182.93 193.58 166.3 193.58 149.67 193.58"/>
    <polygon class="cls-1" points="83.15 193.58 83.15 210.38 99.78 210.38 116.41 210.38 116.41 193.58 99.78 193.58 83.15 193.58"/>
    <polygon class="cls-1" points="798.25 176.78 781.62 176.78 764.99 176.78 764.99 193.58 781.62 193.58 798.25 193.58 798.25 176.78"/>
    <polygon class="cls-1" points="615.32 176.78 598.69 176.78 582.06 176.78 582.06 193.58 598.69 193.58 615.32 193.58 615.32 176.78"/>
    <polygon class="cls-1" points="432.39 176.78 415.76 176.78 399.13 176.78 399.13 193.58 415.76 193.58 432.39 193.58 432.39 176.78"/>
    <polygon class="cls-1" points="266.08 176.78 266.08 193.58 282.71 193.58 299.34 193.58 299.34 176.78 282.71 176.78 266.08 176.78"/>
    <polygon class="cls-1" points="83.15 159.97 66.52 159.97 49.89 159.97 49.89 176.78 66.52 176.78 83.15 176.78 83.15 159.97"/>
    <polygon class="cls-1" points="715.1 143.17 715.1 159.97 731.73 159.97 748.36 159.97 748.36 143.17 731.73 143.17 715.1 143.17"/>
    <polygon class="cls-1" points="532.17 143.17 532.17 159.97 548.8 159.97 565.43 159.97 565.43 143.17 548.8 143.17 532.17 143.17"/>
    <polygon class="cls-1" points="349.23 143.17 349.23 159.97 365.87 159.97 382.5 159.97 382.5 143.17 365.87 143.17 349.23 143.17"/>
    <rect class="cls-1" x="249.45" y="143.17" width="16.63" height="16.8"/>
    <rect class="cls-1" x="166.3" y="143.17" width="16.63" height="16.8"/>
    <rect class="cls-1" x="83.15" y="143.17" width="16.63" height="16.8"/>
  </g>
  <g>
    <rect class="cls-3" x="814.88" y="210.38" width="16.63" height="16.8"/>
    <polygon class="cls-3" points="798.25 210.38 781.62 210.38 781.62 227.18 764.99 227.18 748.36 227.18 748.36 210.38 731.73 210.38 731.73 227.18 715.1 227.18 698.47 227.18 681.84 227.18 665.21 227.18 665.21 210.38 648.58 210.38 631.95 210.38 631.95 227.18 615.32 227.18 615.32 210.38 598.69 210.38 598.69 227.18 582.06 227.18 565.43 227.18 565.43 210.38 548.8 210.38 548.8 227.18 532.17 227.18 515.54 227.18 498.91 227.18 482.28 227.18 482.28 210.38 465.65 210.38 449.02 210.38 449.02 227.18 432.39 227.18 432.39 210.38 415.76 210.38 415.76 227.18 399.13 227.18 382.5 227.18 382.5 210.38 365.87 210.38 365.87 227.18 349.23 227.18 332.61 227.18 315.97 227.18 299.34 227.18 299.34 210.38 282.71 210.38 282.71 227.18 266.08 227.18 249.45 227.18 232.82 227.18 216.19 227.18 216.19 210.38 199.56 210.38 199.56 227.18 182.93 227.18 166.3 227.18 166.3 210.38 149.67 210.38 149.67 227.18 133.04 227.18 116.41 227.18 99.78 227.18 99.78 210.38 83.15 210.38 83.15 227.18 66.52 227.18 49.89 227.18 49.89 210.38 33.26 210.38 33.26 193.58 33.26 176.78 33.26 159.97 49.89 159.97 66.52 159.97 83.15 159.97 83.15 143.17 99.78 143.17 99.78 126.37 83.15 126.37 66.52 126.37 66.52 109.57 49.89 109.57 49.89 126.37 49.89 143.17 33.26 143.17 33.26 126.37 16.63 126.37 16.63 143.17 16.63 159.97 16.63 176.78 16.63 193.58 16.63 210.38 16.63 227.18 33.26 227.18 33.26 243.99 49.89 243.99 66.52 243.99 83.15 243.99 99.78 243.99 116.41 243.99 133.04 243.99 149.67 243.99 166.3 243.99 182.93 243.99 199.56 243.99 216.19 243.99 232.82 243.99 249.45 243.99 266.08 243.99 282.71 243.99 299.34 243.99 315.97 243.99 332.61 243.99 349.23 243.99 365.87 243.99 382.5 243.99 399.13 243.99 415.76 243.99 432.39 243.99 449.02 243.99 465.65 243.99 482.28 243.99 498.91 243.99 515.54 243.99 532.17 243.99 548.8 243.99 565.43 243.99 582.06 243.99 598.69 243.99 615.32 243.99 631.95 243.99 648.58 243.99 665.21 243.99 681.84 243.99 698.47 243.99 715.1 243.99 731.73 243.99 748.36 243.99 764.99 243.99 781.62 243.99 798.25 243.99 814.88 243.99 814.88 227.18 798.25 227.18 798.25 210.38"/>
    <polygon class="cls-3" points="831.51 126.37 814.88 126.37 814.88 143.17 798.25 143.17 798.25 126.37 781.62 126.37 781.62 143.17 764.99 143.17 764.99 126.37 748.36 126.37 731.73 126.37 715.1 126.37 698.47 126.37 698.47 143.17 681.84 143.17 665.21 143.17 665.21 126.37 648.58 126.37 631.95 126.37 631.95 143.17 615.32 143.17 615.32 126.37 598.69 126.37 598.69 143.17 582.06 143.17 582.06 126.37 565.43 126.37 548.8 126.37 532.17 126.37 515.54 126.37 515.54 143.17 498.91 143.17 482.28 143.17 482.28 126.37 465.65 126.37 449.02 126.37 449.02 143.17 432.39 143.17 432.39 126.37 415.76 126.37 415.76 143.17 399.13 143.17 399.13 126.37 382.5 126.37 365.87 126.37 349.23 126.37 332.61 126.37 332.61 143.17 315.97 143.17 299.34 143.17 282.71 143.17 282.71 126.37 266.08 126.37 266.08 109.57 249.45 109.57 249.45 126.37 232.82 126.37 232.82 143.17 216.19 143.17 216.19 126.37 199.56 126.37 199.56 109.57 182.93 109.57 182.93 126.37 166.3 126.37 149.67 126.37 149.67 143.17 133.04 143.17 116.41 143.17 99.78 143.17 99.78 159.97 116.41 159.97 133.04 159.97 149.67 159.97 166.3 159.97 166.3 143.17 182.93 143.17 182.93 159.97 199.56 159.97 216.19 159.97 232.82 159.97 249.45 159.97 249.45 143.17 266.08 143.17 266.08 159.97 282.71 159.97 299.34 159.97 315.97 159.97 332.61 159.97 349.23 159.97 349.23 143.17 365.87 143.17 382.5 143.17 382.5 159.97 399.13 159.97 415.76 159.97 432.39 159.97 449.02 159.97 465.65 159.97 482.28 159.97 498.91 159.97 515.54 159.97 532.17 159.97 532.17 143.17 548.8 143.17 565.43 143.17 565.43 159.97 582.06 159.97 598.69 159.97 615.32 159.97 631.95 159.97 648.58 159.97 665.21 159.97 681.84 159.97 698.47 159.97 715.1 159.97 715.1 143.17 731.73 143.17 748.36 143.17 748.36 159.97 764.99 159.97 781.62 159.97 798.25 159.97 814.88 159.97 831.51 159.97 831.51 176.78 831.51 193.58 831.51 210.38 848.14 210.38 848.14 193.58 848.14 176.78 848.14 159.97 848.14 143.17 848.14 126.37 831.51 126.37"/>
  </g>
  <polygon class="cls-2" points="848.14 92.76 848.14 109.57 831.51 109.57 814.88 109.57 814.88 92.76 798.25 92.76 798.25 75.96 781.62 75.96 781.62 92.76 764.99 92.76 764.99 109.57 748.36 109.57 731.73 109.57 731.73 92.76 715.1 92.76 715.1 75.96 698.47 75.96 681.84 75.96 681.84 92.76 665.21 92.76 665.21 109.57 648.58 109.57 631.95 109.57 631.95 92.76 615.32 92.76 615.32 75.96 598.69 75.96 598.69 92.76 582.06 92.76 582.06 109.57 565.43 109.57 548.8 109.57 548.8 92.76 532.17 92.76 532.17 75.96 515.54 75.96 498.91 75.96 498.91 92.76 482.28 92.76 482.28 109.57 465.65 109.57 449.02 109.57 449.02 92.76 432.39 92.76 432.39 75.96 415.76 75.96 415.76 92.76 399.13 92.76 399.13 109.57 382.5 109.57 365.87 109.57 365.87 92.76 349.23 92.76 349.23 75.96 332.61 75.96 315.97 75.96 315.97 92.76 299.34 92.76 282.71 92.76 266.08 92.76 266.08 75.96 249.45 75.96 249.45 92.76 232.82 92.76 232.82 109.57 216.19 109.57 216.19 92.76 199.56 92.76 199.56 75.96 182.93 75.96 166.3 75.96 149.67 75.96 149.67 92.76 133.04 92.76 133.04 109.57 116.41 109.57 99.78 109.57 83.15 109.57 83.15 92.76 66.52 92.76 66.52 75.96 49.89 75.96 49.89 92.76 33.26 92.76 16.63 92.76 0 92.76 0 109.57 0 126.37 16.63 126.37 33.26 126.37 33.26 143.17 49.89 143.17 49.89 126.37 49.89 109.57 66.52 109.57 66.52 126.37 83.15 126.37 99.78 126.37 99.78 143.17 116.41 143.17 133.04 143.17 149.67 143.17 149.67 126.37 166.3 126.37 182.93 126.37 182.93 109.57 199.56 109.57 199.56 126.37 216.19 126.37 216.19 143.17 232.82 143.17 232.82 126.37 249.45 126.37 249.45 109.57 266.08 109.57 266.08 126.37 282.71 126.37 282.71 143.17 299.34 143.17 315.97 143.17 332.61 143.17 332.61 126.37 349.23 126.37 365.87 126.37 382.5 126.37 399.13 126.37 399.13 143.17 415.76 143.17 415.76 126.37 432.39 126.37 432.39 143.17 449.02 143.17 449.02 126.37 465.65 126.37 482.28 126.37 482.28 143.17 498.91 143.17 515.54 143.17 515.54 126.37 532.17 126.37 548.8 126.37 565.43 126.37 582.06 126.37 582.06 143.17 598.69 143.17 598.69 126.37 615.32 126.37 615.32 143.17 631.95 143.17 631.95 126.37 648.58 126.37 665.21 126.37 665.21 143.17 681.84 143.17 698.47 143.17 698.47 126.37 715.1 126.37 731.73 126.37 748.36 126.37 764.99 126.37 764.99 143.17 781.62 143.17 781.62 126.37 798.25 126.37 798.25 143.17 814.88 143.17 814.88 126.37 831.51 126.37 848.14 126.37 864.77 126.37 864.77 109.57 864.77 92.76 848.14 92.76"/>
  <polygon class="cls-5" points="848.14 75.96 848.14 59.16 831.51 59.16 814.88 59.16 798.25 59.16 781.62 59.16 764.99 59.16 748.36 59.16 731.73 59.16 715.1 59.16 698.47 59.16 681.84 59.16 665.21 59.16 648.58 59.16 631.95 59.16 615.32 59.16 598.69 59.16 582.06 59.16 565.43 59.16 548.8 59.16 532.17 59.16 515.54 59.16 498.91 59.16 482.28 59.16 465.65 59.16 449.02 59.16 432.39 59.16 415.76 59.16 399.13 59.16 382.5 59.16 365.87 59.16 349.23 59.16 332.61 59.16 315.97 59.16 299.34 59.16 282.71 59.16 266.08 59.16 249.45 59.16 232.82 59.16 216.19 59.16 199.56 59.16 182.93 59.16 166.3 59.16 149.67 59.16 133.04 59.16 116.41 59.16 99.78 59.16 83.15 59.16 66.52 59.16 49.89 59.16 33.26 59.16 16.63 59.16 16.63 75.96 0 75.96 0 92.76 16.63 92.76 33.26 92.76 49.89 92.76 49.89 75.96 66.52 75.96 66.52 92.76 83.15 92.76 83.15 109.57 99.78 109.57 116.41 109.57 133.04 109.57 133.04 92.76 149.67 92.76 149.67 75.96 166.3 75.96 182.93 75.96 199.56 75.96 199.56 92.76 216.19 92.76 216.19 109.57 232.82 109.57 232.82 92.76 249.45 92.76 249.45 75.96 266.08 75.96 266.08 92.76 282.71 92.76 299.34 92.76 315.97 92.76 315.97 75.96 332.61 75.96 349.23 75.96 349.23 92.76 365.87 92.76 365.87 109.57 382.5 109.57 399.13 109.57 399.13 92.76 415.76 92.76 415.76 75.96 432.39 75.96 432.39 92.76 449.02 92.76 449.02 109.57 465.65 109.57 482.28 109.57 482.28 92.76 498.91 92.76 498.91 75.96 515.54 75.96 532.17 75.96 532.17 92.76 548.8 92.76 548.8 109.57 565.43 109.57 582.06 109.57 582.06 92.76 598.69 92.76 598.69 75.96 615.32 75.96 615.32 92.76 631.95 92.76 631.95 109.57 648.58 109.57 665.21 109.57 665.21 92.76 681.84 92.76 681.84 75.96 698.47 75.96 715.1 75.96 715.1 92.76 731.73 92.76 731.73 109.57 748.36 109.57 764.99 109.57 764.99 92.76 781.62 92.76 781.62 75.96 798.25 75.96 798.25 92.76 814.88 92.76 814.88 109.57 831.51 109.57 848.14 109.57 848.14 92.76 864.77 92.76 864.77 75.96 848.14 75.96"/>
</svg>