<?xml version="1.0" encoding="UTF-8"?>
<svg id="Bricks" xmlns="http://www.w3.org/2000/svg" viewBox="0 0 300 300">
  <defs>
    <style>
      .cls-1 {
        fill: #583231;
      }

      .cls-2 {
        fill: #6aba45;
      }

      .cls-3 {
        fill: #5cb243;
      }

      .cls-4 {
        fill: #975331;
      }

      .cls-5 {
        fill: #b8693a;
      }

      .cls-6 {
        fill: #107e49;
      }

      .cls-7 {
        fill: #7e4033;
      }

      .cls-8 {
        fill: #309745;
      }
    </style>
  </defs>
  <g>
    <rect class="cls-5" x="249.98" y="208.82" width="16.67" height="16.8"/>
    <rect class="cls-5" x="249.99" y="141.62" width="16.67" height="16.8"/>
    <rect class="cls-5" x="216.64" y="208.81" width="16.67" height="16.8"/>
    <polygon class="cls-5" points="199.98 175.2 199.98 192.01 216.65 192.02 233.32 192.02 233.32 175.21 216.65 175.21 199.98 175.2"/>
    <rect class="cls-5" x="166.66" y="141.61" width="16.67" height="16.8"/>
    <polygon class="cls-5" points="149.99 192.01 149.98 208.8 166.65 208.8 183.32 208.81 183.32 192.01 166.66 192.01 149.99 192.01"/>
    <polygon class="cls-5" points="83.32 192 83.32 208.79 99.99 208.79 116.66 208.8 116.66 192 99.99 192 83.32 192"/>
    <polygon class="cls-5" points="83.33 158.39 66.66 158.39 50 158.38 50 175.18 66.66 175.18 83.33 175.18 83.33 158.39"/>
  </g>
  <path class="cls-4" d="M249.99,158.42h-16.67s-16.67,0-16.67,0h-16.67s-16.65,0-16.65,0h-16.67s-16.67,0-16.67,0h-16.67s-16.65,0-16.65,0h-16.67s-16.67,0-16.67,0v16.79s-16.67,0-16.67,0h-16.65s0-16.8,0-16.8h-16.67s0,16.79,0,16.79v16.81s0,16.8,0,16.8h16.67s0,16.8,0,16.8h16.65s16.67,0,16.67,0v-16.8s0-16.8,0-16.8h16.67s16.67,0,16.67,0v16.8s-16.67,0-16.67,0v16.8s16.67,0,16.67,0h16.65s16.67,0,16.67,0v-16.8s0-16.8,0-16.8h16.67s16.67,0,16.67,0v16.8s-16.67,0-16.67,0v16.8s16.67,0,16.67,0h16.65s0-16.79,0-16.79h16.67s16.67,0,16.67,0h16.67s16.67,0,16.67,0v-16.8s0-16.81,0-16.81v-16.8s-16.67,0-16.67,0ZM216.65,192.02h-16.67s0-16.81,0-16.81h16.67s16.67,0,16.67,0v16.81s-16.67,0-16.67,0Z"/>
  <g>
    <polygon class="cls-7" points="266.67 141.62 266.66 158.42 266.66 175.21 266.66 192.02 266.66 208.82 266.65 225.61 283.31 225.62 283.31 208.82 283.31 192.03 283.31 175.22 283.32 158.42 283.32 141.62 266.67 141.62"/>
    <rect class="cls-7" x="250" y="124.81" width="16.67" height="16.81"/>
    <polygon class="cls-7" points="249.99 208.82 233.32 208.81 233.31 225.61 216.64 225.61 216.65 208.81 199.98 208.81 199.97 225.6 183.32 225.6 166.65 225.6 166.65 208.8 149.98 208.8 149.98 225.6 133.31 225.59 116.66 225.59 99.99 225.59 99.99 208.79 83.32 208.79 83.32 225.59 66.65 225.58 49.99 225.58 50 208.79 33.33 208.78 33.33 191.99 33.33 175.18 33.33 158.38 50 158.38 66.66 158.39 83.33 158.39 100 158.39 116.67 158.39 116.67 141.6 100 141.6 83.33 141.59 66.66 141.59 66.66 124.78 50.01 124.78 50.01 141.59 33.34 141.58 16.67 141.58 16.66 158.38 16.66 175.17 16.66 191.98 16.66 208.78 16.65 225.58 33.32 225.58 33.32 242.39 49.99 242.39 66.64 242.39 83.31 242.4 99.98 242.4 116.65 242.4 133.31 242.4 149.98 242.41 166.65 242.41 183.32 242.41 199.97 242.42 216.64 242.42 233.31 242.42 249.98 242.42 266.65 242.43 266.65 225.61 249.98 225.61 249.99 208.82"/>
    <rect class="cls-7" x="233.32" y="141.62" width="16.67" height="16.8"/>
    <polygon class="cls-7" points="216.65 158.41 216.66 141.61 199.99 141.61 199.99 124.8 183.34 124.8 183.33 141.61 183.33 158.4 199.98 158.41 216.65 158.41"/>
    <polygon class="cls-7" points="166.66 158.4 166.66 141.61 149.99 141.6 133.32 141.6 133.32 158.4 149.99 158.4 166.66 158.4"/>
  </g>
  <g>
    <rect class="cls-1" x="266.67" y="124.81" width="16.65" height="16.81"/>
    <rect class="cls-1" x="250" y="108.01" width="16.67" height="16.8"/>
    <rect class="cls-1" x="233.33" y="124.81" width="16.67" height="16.81"/>
    <rect class="cls-1" x="216.66" y="141.62" width="16.67" height="16.8"/>
    <rect class="cls-1" x="199.99" y="124.8" width="16.67" height="16.81"/>
    <rect class="cls-1" x="183.34" y="108" width="16.65" height="16.8"/>
    <polygon class="cls-1" points="150 124.79 149.99 141.6 166.66 141.61 183.33 141.61 183.34 124.8 166.67 124.79 150 124.79"/>
    <rect class="cls-1" x="116.67" y="141.6" width="16.65" height="16.8"/>
    <polygon class="cls-1" points="66.66 124.78 66.66 141.59 83.33 141.59 100 141.6 100 124.78 83.33 124.78 66.66 124.78"/>
    <rect class="cls-1" x="50.01" y="107.98" width="16.65" height="16.8"/>
    <rect class="cls-1" x="16.67" y="124.77" width="16.67" height="16.81"/>
  </g>
  <g>
    <polygon class="cls-8" points="283.33 91.22 266.67 91.22 266.68 74.41 250.01 74.41 250 91.22 233.33 91.21 233.33 108.01 216.66 108.01 216.66 91.21 200 91.21 200 74.4 183.34 74.4 166.67 74.39 150 74.39 150 91.2 133.33 91.2 133.33 107.99 116.68 107.99 116.67 124.79 133.33 124.79 150 124.79 166.67 124.79 166.67 108 183.34 108 199.99 108 199.99 124.8 216.66 124.8 233.33 124.81 250 124.81 250 108.01 266.67 108.02 283.33 108.02 300 108.02 300 91.23 283.33 91.22"/>
    <rect class="cls-8" x="83.33" y="107.99" width="16.67" height="16.8"/>
    <polygon class="cls-8" points="66.67 91.19 66.67 74.38 50.02 74.37 50.01 91.19 33.34 91.18 16.68 91.18 16.67 107.98 33.34 107.98 33.34 124.77 50.01 124.78 50.01 107.98 66.67 107.98 83.34 107.99 83.34 91.19 66.67 91.19"/>
  </g>
  <polygon class="cls-2" points="266.68 57.61 250.01 57.61 233.34 57.61 216.67 57.61 200 57.6 183.35 57.6 166.68 57.6 150.01 57.6 133.34 57.59 116.68 57.59 100.01 57.59 83.34 57.58 66.67 57.58 50.02 57.58 33.35 57.58 16.68 57.57 16.68 74.37 16.68 91.18 33.34 91.18 50.01 91.19 50.02 74.37 66.67 74.38 66.67 91.19 83.34 91.19 83.34 107.99 100.01 107.99 116.68 107.99 133.33 107.99 133.33 91.2 150 91.2 150 74.39 166.67 74.39 183.34 74.4 200 74.4 200 91.21 216.66 91.21 216.66 108.01 233.33 108.01 233.33 91.21 250 91.22 250.01 74.41 266.68 74.41 266.67 91.22 283.33 91.22 283.33 74.41 283.33 57.62 266.68 57.61"/>
  <g>
    <polygon class="cls-6" points="283.33 108.02 266.67 108.02 266.67 124.81 283.32 124.81 299.99 124.82 300 108.02 283.33 108.02"/>
    <rect class="cls-6" x="216.66" y="124.8" width="16.67" height="16.81"/>
    <rect class="cls-6" x="166.67" y="108" width="16.67" height="16.8"/>
    <polygon class="cls-6" points="116.67 124.79 116.68 107.99 100.01 107.99 100 124.78 100 141.6 116.67 141.6 133.32 141.6 149.99 141.6 150 124.79 133.33 124.79 116.67 124.79"/>
    <rect class="cls-6" x="66.66" y="107.99" width="16.67" height="16.8"/>
    <rect class="cls-6" x="33.34" y="124.78" width="16.67" height="16.81"/>
    <polygon class="cls-6" points="16.67 107.98 16.68 91.18 0 91.18 0 107.97 0 124.77 16.67 124.77 33.34 124.77 33.34 107.98 16.67 107.98"/>
  </g>
  <g>
    <rect class="cls-3" x="283.33" y="74.41" width="16.67" height="16.81"/>
    <rect class="cls-3" x="0" y="74.37" width="16.67" height="16.81"/>
  </g>
</svg>