<?xml version="1.0" encoding="UTF-8"?>
<svg id="Bricks" xmlns="http://www.w3.org/2000/svg" viewBox="0 0 499.6 300">
  <defs>
    <style>
      .cls-1 {
        fill: #583231;
      }

      .cls-2 {
        fill: #6aba45;
      }

      .cls-3 {
        fill: #5cb243;
      }

      .cls-4 {
        fill: #975331;
      }

      .cls-5 {
        fill: #b8693a;
      }

      .cls-6 {
        fill: #107e49;
      }

      .cls-7 {
        fill: #7e4033;
      }

      .cls-8 {
        fill: #309745;
      }
    </style>
  </defs>
  <path class="cls-4" d="M449.64,158.4h-166.53v16.8h-33.31v-16.8H83.27v16.8h-33.31v-16.8h-16.65v50.41h16.65v16.8h33.31v-33.61h33.31v16.8h-16.65v16.8h49.96v-33.61h33.31v16.8h-16.65v16.8h33.31v-16.8h49.96v16.8h33.31v-33.61h33.31v16.8h-16.65v16.8h49.96v-33.61h33.31v16.8h-16.65v16.8h33.31v-16.8h66.61v-50.41h-16.65ZM199.84,192.01v-16.8h16.65v16.8h-16.65ZM416.33,192.01h-16.65v-16.8h33.31v16.8h-16.65Z"/>
  <g>
    <rect class="cls-5" x="449.64" y="208.82" width="16.65" height="16.8"/>
    <rect class="cls-5" x="416.33" y="208.82" width="16.65" height="16.8"/>
    <polygon class="cls-5" points="349.72 192.01 349.72 208.82 366.37 208.82 383.03 208.82 383.03 192.01 366.37 192.01 349.72 192.01"/>
    <polygon class="cls-5" points="283.11 192.01 283.11 208.82 299.76 208.82 316.41 208.82 316.41 192.01 299.76 192.01 283.11 192.01"/>
    <polygon class="cls-5" points="149.88 192.01 149.88 208.82 166.53 208.82 183.19 208.82 183.19 192.01 166.53 192.01 149.88 192.01"/>
    <polygon class="cls-5" points="83.27 192.01 83.27 208.82 99.92 208.82 116.57 208.82 116.57 192.01 99.92 192.01 83.27 192.01"/>
    <polygon class="cls-5" points="399.68 175.21 399.68 192.01 416.33 192.01 432.99 192.01 432.99 175.21 416.33 175.21 399.68 175.21"/>
    <rect class="cls-5" x="199.84" y="175.21" width="16.65" height="16.8"/>
    <polygon class="cls-5" points="283.11 158.4 266.45 158.4 249.8 158.4 249.8 175.21 266.45 175.21 283.11 175.21 283.11 158.4"/>
    <polygon class="cls-5" points="83.27 158.4 66.61 158.4 49.96 158.4 49.96 175.21 66.61 175.21 83.27 175.21 83.27 158.4"/>
    <rect class="cls-5" x="449.64" y="141.6" width="16.65" height="16.8"/>
    <rect class="cls-5" x="366.37" y="141.6" width="16.65" height="16.8"/>
    <rect class="cls-5" x="166.53" y="141.6" width="16.65" height="16.8"/>
  </g>
  <g>
    <polygon class="cls-7" points="449.64 208.82 432.99 208.82 432.99 225.62 416.33 225.62 416.33 208.82 399.68 208.82 399.68 225.62 383.03 225.62 366.37 225.62 366.37 208.82 349.72 208.82 349.72 225.62 333.07 225.62 316.41 225.62 299.76 225.62 299.76 208.82 283.11 208.82 283.11 225.62 266.45 225.62 249.8 225.62 249.8 208.82 233.15 208.82 216.49 208.82 199.84 208.82 199.84 225.62 183.19 225.62 166.53 225.62 166.53 208.82 149.88 208.82 149.88 225.62 133.23 225.62 116.57 225.62 99.92 225.62 99.92 208.82 83.27 208.82 83.27 225.62 66.61 225.62 49.96 225.62 49.96 208.82 33.31 208.82 33.31 192.01 33.31 175.21 33.31 158.4 49.96 158.4 66.61 158.4 83.27 158.4 99.92 158.4 116.57 158.4 116.57 141.6 99.92 141.6 83.27 141.6 66.61 141.6 66.61 124.79 49.96 124.79 49.96 141.6 33.31 141.6 16.65 141.6 16.65 158.4 16.65 175.21 16.65 192.01 16.65 208.82 16.65 225.62 33.31 225.62 33.31 242.43 49.96 242.43 66.61 242.43 83.27 242.43 99.92 242.43 116.57 242.43 133.23 242.43 149.88 242.43 166.53 242.43 183.19 242.43 199.84 242.43 216.49 242.43 233.15 242.43 249.8 242.43 266.45 242.43 283.11 242.43 299.76 242.43 316.41 242.43 333.07 242.43 349.72 242.43 366.37 242.43 383.03 242.43 399.68 242.43 416.33 242.43 432.99 242.43 449.64 242.43 466.29 242.43 466.29 225.62 449.64 225.62 449.64 208.82"/>
    <polygon class="cls-7" points="466.29 141.6 466.29 158.4 466.29 175.21 466.29 192.01 466.29 208.82 466.29 225.62 482.95 225.62 482.95 208.82 482.95 192.01 482.95 175.21 482.95 158.4 482.95 141.6 466.29 141.6"/>
    <rect class="cls-7" x="432.99" y="141.6" width="16.65" height="16.8"/>
    <polygon class="cls-7" points="416.33 158.4 416.33 141.6 399.68 141.6 399.68 124.79 383.03 124.79 383.03 141.6 383.03 158.4 399.68 158.4 416.33 158.4"/>
    <polygon class="cls-7" points="366.37 158.4 366.37 141.6 349.72 141.6 333.07 141.6 333.07 158.4 349.72 158.4 366.37 158.4"/>
    <polygon class="cls-7" points="216.49 158.4 233.15 158.4 249.8 158.4 266.45 158.4 283.11 158.4 299.76 158.4 316.41 158.4 316.41 141.6 299.76 141.6 283.11 141.6 266.45 141.6 266.45 124.79 249.8 124.79 249.8 141.6 233.15 141.6 216.49 141.6 199.84 141.6 199.84 124.79 183.19 124.79 183.19 141.6 183.19 158.4 199.84 158.4 216.49 158.4"/>
    <polygon class="cls-7" points="166.53 158.4 166.53 141.6 149.88 141.6 133.23 141.6 133.23 158.4 149.88 158.4 166.53 158.4"/>
    <rect class="cls-7" x="449.64" y="124.79" width="16.65" height="16.8"/>
  </g>
  <g>
    <rect class="cls-1" x="416.33" y="141.6" width="16.65" height="16.8"/>
    <rect class="cls-1" x="316.41" y="141.6" width="16.65" height="16.8"/>
    <rect class="cls-1" x="116.57" y="141.6" width="16.65" height="16.8"/>
    <rect class="cls-1" x="466.29" y="124.79" width="16.65" height="16.8"/>
    <rect class="cls-1" x="432.99" y="124.79" width="16.65" height="16.8"/>
    <rect class="cls-1" x="399.68" y="124.79" width="16.65" height="16.8"/>
    <polygon class="cls-1" points="349.72 124.79 349.72 141.6 366.37 141.6 383.03 141.6 383.03 124.79 366.37 124.79 349.72 124.79"/>
    <polygon class="cls-1" points="266.45 124.79 266.45 141.6 283.11 141.6 299.76 141.6 299.76 124.79 283.11 124.79 266.45 124.79"/>
    <polygon class="cls-1" points="199.84 124.79 199.84 141.6 216.49 141.6 233.15 141.6 233.15 124.79 216.49 124.79 199.84 124.79"/>
    <polygon class="cls-1" points="149.88 124.79 149.88 141.6 166.53 141.6 183.19 141.6 183.19 124.79 166.53 124.79 149.88 124.79"/>
    <polygon class="cls-1" points="66.61 124.79 66.61 141.6 83.27 141.6 99.92 141.6 99.92 124.79 83.27 124.79 66.61 124.79"/>
    <rect class="cls-1" x="16.65" y="124.79" width="16.65" height="16.8"/>
    <rect class="cls-1" x="449.64" y="107.99" width="16.65" height="16.8"/>
    <rect class="cls-1" x="383.03" y="107.99" width="16.65" height="16.8"/>
    <rect class="cls-1" x="249.8" y="107.99" width="16.65" height="16.8"/>
    <rect class="cls-1" x="183.19" y="107.99" width="16.65" height="16.8"/>
    <rect class="cls-1" x="49.96" y="107.99" width="16.65" height="16.8"/>
  </g>
  <g>
    <rect class="cls-6" x="416.33" y="124.79" width="16.65" height="16.8"/>
    <polygon class="cls-6" points="316.41 124.79 299.76 124.79 299.76 141.6 316.41 141.6 333.07 141.6 349.72 141.6 349.72 124.79 333.07 124.79 316.41 124.79"/>
    <rect class="cls-6" x="233.15" y="124.79" width="16.65" height="16.8"/>
    <polygon class="cls-6" points="116.57 124.79 116.57 107.99 99.92 107.99 99.92 124.79 99.92 141.6 116.57 141.6 133.23 141.6 149.88 141.6 149.88 124.79 133.23 124.79 116.57 124.79"/>
    <rect class="cls-6" x="33.31" y="124.79" width="16.65" height="16.8"/>
    <polygon class="cls-6" points="482.95 107.99 466.29 107.99 466.29 124.79 482.95 124.79 499.6 124.79 499.6 107.99 482.95 107.99"/>
    <rect class="cls-6" x="366.37" y="107.99" width="16.65" height="16.8"/>
    <rect class="cls-6" x="266.45" y="107.99" width="16.65" height="16.8"/>
    <polygon class="cls-6" points="216.49 107.99 216.49 91.18 199.84 91.18 199.84 107.99 199.84 124.79 216.49 124.79 233.15 124.79 233.15 107.99 216.49 107.99"/>
    <rect class="cls-6" x="166.53" y="107.99" width="16.65" height="16.8"/>
    <rect class="cls-6" x="66.61" y="107.99" width="16.65" height="16.8"/>
    <polygon class="cls-6" points="16.65 107.99 16.65 91.18 0 91.18 0 107.99 0 124.79 16.65 124.79 33.31 124.79 33.31 107.99 16.65 107.99"/>
  </g>
  <g>
    <rect class="cls-8" x="83.27" y="107.99" width="16.65" height="16.8"/>
    <polygon class="cls-8" points="482.95 91.18 466.29 91.18 466.29 74.38 449.64 74.38 449.64 91.18 432.99 91.18 432.99 107.99 416.33 107.99 416.33 91.18 399.68 91.18 399.68 74.38 383.03 74.38 366.37 74.38 349.72 74.38 349.72 91.18 333.07 91.18 333.07 107.99 316.41 107.99 299.76 107.99 299.76 91.18 283.11 91.18 266.45 91.18 266.45 74.38 249.8 74.38 249.8 91.18 233.15 91.18 233.15 107.99 233.15 124.79 249.8 124.79 249.8 107.99 266.45 107.99 283.11 107.99 283.11 124.79 299.76 124.79 316.41 124.79 333.07 124.79 349.72 124.79 366.37 124.79 366.37 107.99 383.03 107.99 399.68 107.99 399.68 124.79 416.33 124.79 432.99 124.79 449.64 124.79 449.64 107.99 466.29 107.99 482.95 107.99 499.6 107.99 499.6 91.18 482.95 91.18"/>
    <polygon class="cls-8" points="66.61 91.18 66.61 74.38 49.96 74.38 49.96 91.18 33.31 91.18 16.65 91.18 16.65 107.99 33.31 107.99 33.31 124.79 49.96 124.79 49.96 107.99 66.61 107.99 83.27 107.99 83.27 91.18 66.61 91.18"/>
    <polygon class="cls-8" points="183.19 74.38 166.53 74.38 149.88 74.38 149.88 91.18 133.23 91.18 133.23 107.99 116.57 107.99 116.57 124.79 133.23 124.79 149.88 124.79 166.53 124.79 166.53 107.99 183.19 107.99 199.84 107.99 199.84 91.18 183.19 91.18 183.19 74.38"/>
  </g>
  <g>
    <rect class="cls-3" x="482.95" y="74.38" width="16.65" height="16.8"/>
    <rect class="cls-3" x="0" y="74.38" width="16.65" height="16.8"/>
  </g>
  <polygon class="cls-2" points="466.29 57.57 449.64 57.57 432.99 57.57 416.33 57.57 399.68 57.57 383.03 57.57 366.37 57.57 349.72 57.57 333.07 57.57 316.41 57.57 299.76 57.57 283.11 57.57 266.45 57.57 249.8 57.57 233.15 57.57 216.49 57.57 199.84 57.57 183.19 57.57 166.53 57.57 149.88 57.57 133.23 57.57 116.57 57.57 99.92 57.57 83.27 57.57 66.61 57.57 49.96 57.57 33.31 57.57 16.65 57.57 16.65 74.38 16.65 91.18 33.31 91.18 49.96 91.18 49.96 74.38 66.61 74.38 66.61 91.18 83.27 91.18 83.27 107.99 99.92 107.99 116.57 107.99 133.23 107.99 133.23 91.18 149.88 91.18 149.88 74.38 166.53 74.38 183.19 74.38 183.19 91.18 199.84 91.18 216.49 91.18 216.49 107.99 233.15 107.99 233.15 91.18 249.8 91.18 249.8 74.38 266.45 74.38 266.45 91.18 283.11 91.18 299.76 91.18 299.76 107.99 316.41 107.99 333.07 107.99 333.07 91.18 349.72 91.18 349.72 74.38 366.37 74.38 383.03 74.38 399.68 74.38 399.68 91.18 416.33 91.18 416.33 107.99 432.99 107.99 432.99 91.18 449.64 91.18 449.64 74.38 466.29 74.38 466.29 91.18 482.95 91.18 482.95 74.38 482.95 57.57 466.29 57.57"/>
</svg>